%FSLAX24Y24*%
%MOIN*%
G70*
G01*
G75*
G04 Layer_Physical_Order=2*
G04 Layer_Color=16711680*
%ADD10C,0.0050*%
%ADD11C,0.0079*%
%ADD12C,0.0080*%
%ADD13C,0.0100*%
%ADD14C,0.0600*%
%ADD15R,0.0591X0.0591*%
%ADD16C,0.0591*%
%ADD17R,0.0591X0.0591*%
%ADD18C,0.0472*%
%ADD19C,0.0500*%
D11*
X29460Y32740D02*
X32590Y35870D01*
X33000Y36280D01*
Y38000D01*
X32590Y35870D02*
X35940D01*
X42380D01*
X43700Y34550D01*
X43000Y37000D02*
X41250D01*
X40541Y37709D01*
X36850D01*
X35940Y36799D01*
Y35870D01*
Y32680D01*
X48680D01*
X49500Y33500D01*
Y34500D02*
X50320Y35320D01*
Y56030D01*
X47750Y58600D01*
X46750D02*
X45760Y57610D01*
X24470D01*
X23430Y56570D01*
Y49570D01*
X25000Y48000D01*
X25160Y46500D02*
X25460Y46800D01*
X27400D01*
X27700Y46500D01*
Y47300D01*
X29700Y45300D01*
Y43450D01*
X32850Y46600D01*
X46750D01*
X46210Y46060D01*
Y40140D01*
X46750Y39600D01*
X47290Y39060D01*
X48000D01*
X48290Y39350D01*
Y42060D01*
X47750Y42600D01*
X48290Y43140D01*
Y44060D01*
X47750Y44600D01*
X48290Y45140D01*
Y49060D01*
X47750Y49600D01*
X48290Y50140D01*
Y52060D01*
X47750Y52600D01*
X49000Y52350D02*
X47750Y53600D01*
X49000Y55000D02*
X47750Y56600D01*
X46750Y54600D02*
X44700Y56650D01*
X37850D01*
Y55654D01*
X38386Y55118D01*
Y56118D02*
X40904Y53600D01*
X46750D01*
Y52600D02*
X27321D01*
X24803Y55118D01*
Y56118D02*
X37386D01*
X37850Y55654D01*
X30400Y49600D02*
X46750D01*
Y47600D02*
X30400D01*
X29000Y49000D01*
X30400Y49600D02*
X29000Y51000D01*
X25000Y50000D02*
X27700Y47300D01*
Y46500D02*
Y43450D01*
X26700D02*
X28210Y41940D01*
X37000D01*
Y43000D01*
X39000D02*
X44780D01*
Y39220D01*
X49500Y34500D01*
X47960Y32960D01*
X36220D01*
Y34270D01*
X36500Y34550D01*
X40700D01*
X49000Y36000D02*
Y52350D01*
X43000Y44780D02*
X44780Y43000D01*
X43000Y44780D02*
X34730D01*
X32700Y42750D01*
X29400D01*
X28700Y43450D01*
X28210Y41940D02*
X30150Y40000D01*
X33000D01*
X29570Y39580D02*
Y35570D01*
X27750Y33750D01*
X27600Y33600D01*
X22100D01*
Y34600D02*
X24250Y36750D01*
X27750D01*
X25160Y39340D01*
Y46500D01*
X25700Y43450D02*
X29570Y39580D01*
X29294Y39466D02*
X28829Y39000D01*
X27000D01*
X22100Y34600D02*
X21560Y34060D01*
Y33000D01*
X21820Y32740D01*
X29460D01*
X25000Y50000D02*
X24270Y50730D01*
Y55585D01*
X24803Y56118D01*
X49000Y36000D02*
X49500Y35500D01*
D14*
X49000Y55000D02*
D03*
D15*
X22100Y34600D02*
D03*
X33000Y38000D02*
D03*
X29000Y48000D02*
D03*
X25000D02*
D03*
X24803Y55118D02*
D03*
X38386D02*
D03*
X46750Y58600D02*
D03*
X49500Y33500D02*
D03*
D16*
X22100Y33600D02*
D03*
X33000Y39000D02*
D03*
Y40000D02*
D03*
X29700Y43450D02*
D03*
X28700D02*
D03*
X27700D02*
D03*
X26700D02*
D03*
X29000Y49000D02*
D03*
Y50000D02*
D03*
Y51000D02*
D03*
X25000D02*
D03*
Y50000D02*
D03*
Y49000D02*
D03*
X24803Y56118D02*
D03*
X37000Y43000D02*
D03*
X38000D02*
D03*
X46750Y39600D02*
D03*
X47750D02*
D03*
Y40600D02*
D03*
Y41600D02*
D03*
Y42600D02*
D03*
Y43600D02*
D03*
Y44600D02*
D03*
Y45600D02*
D03*
Y46600D02*
D03*
Y47600D02*
D03*
Y48600D02*
D03*
Y49600D02*
D03*
Y50600D02*
D03*
Y51600D02*
D03*
Y52600D02*
D03*
Y53600D02*
D03*
Y54600D02*
D03*
Y55600D02*
D03*
Y56600D02*
D03*
Y57600D02*
D03*
Y58600D02*
D03*
X46750Y57600D02*
D03*
Y56600D02*
D03*
Y55600D02*
D03*
Y54600D02*
D03*
Y53600D02*
D03*
Y52600D02*
D03*
Y51600D02*
D03*
Y50600D02*
D03*
Y49600D02*
D03*
Y48600D02*
D03*
Y47600D02*
D03*
Y46600D02*
D03*
Y45600D02*
D03*
Y44600D02*
D03*
Y43600D02*
D03*
Y42600D02*
D03*
Y41600D02*
D03*
Y40600D02*
D03*
X49500Y35500D02*
D03*
Y34500D02*
D03*
X38386Y56118D02*
D03*
D17*
X39000Y43000D02*
D03*
X25700Y43450D02*
D03*
D18*
X27750Y33750D02*
D03*
Y36750D02*
D03*
X40700Y34550D02*
D03*
X43700D02*
D03*
D19*
X43000Y37000D02*
D03*
M02*
