%FSLAX24Y24*%
%MOIN*%
G70*
G01*
G75*
G04 Layer_Physical_Order=1*
G04 Layer_Color=255*
%ADD10C,0.0050*%
%ADD11C,0.0079*%
%ADD12C,0.0080*%
%ADD13C,0.0100*%
%ADD14C,0.0600*%
%ADD15R,0.0591X0.0591*%
%ADD16C,0.0591*%
%ADD17R,0.0591X0.0591*%
%ADD18C,0.0472*%
%ADD19C,0.0500*%
D11*
X43000Y37000D02*
X49000D01*
X50000Y38000D01*
Y54000D01*
X49000Y55000D01*
D12*
X46633Y37967D02*
X46967D01*
X47050Y38050D01*
Y38217D01*
X46967Y38300D01*
X46883D01*
X46800Y38217D01*
Y37967D01*
X46633D02*
X46550Y38050D01*
Y38217D01*
X46633Y38300D01*
Y38467D02*
X46550Y38550D01*
Y38717D01*
X46633Y38800D01*
X46967D02*
X47050Y38717D01*
Y38550D01*
X46967Y38467D01*
X46883D01*
X46800Y38550D01*
Y38633D01*
Y38550D01*
X46717Y38467D01*
X46633D01*
X47550Y38217D02*
X47633Y38300D01*
X47967D01*
X48050Y38217D01*
Y38050D01*
X47967Y37967D01*
X47633D01*
X47550Y38050D01*
Y38217D01*
X47800Y38467D02*
Y38800D01*
X48050Y38550D01*
X47550D01*
Y59267D02*
Y59600D01*
X47883Y59267D01*
X47967D01*
X48050Y59350D01*
Y59517D01*
X47967Y59600D01*
X47050Y59517D02*
X46967Y59600D01*
X47050Y59517D02*
X46550D01*
Y59433D01*
Y59600D01*
D13*
X23699Y31000D02*
X23599Y31100D01*
Y31300D01*
X23699Y31400D01*
X23899D01*
X23999Y31300D01*
Y31200D01*
X23599D01*
X23699Y31000D02*
X23899D01*
X24199D02*
X24499D01*
X24599Y31100D01*
X24499Y31200D01*
X24299D01*
X24199Y31300D01*
X24299Y31400D01*
X24599D01*
X23200Y31600D02*
X23100D01*
X23200D02*
Y31000D01*
X23300D01*
X23100D01*
X22800D02*
X22700D01*
Y31400D01*
X22600D01*
X22400Y31500D02*
Y31300D01*
X22300Y31200D01*
X22000D01*
Y31000D02*
Y31600D01*
X22300D01*
X22400Y31500D01*
X22600Y31000D02*
X22800D01*
X28100Y38000D02*
Y38400D01*
X28400D01*
X28500Y38300D01*
Y38000D01*
X27400Y38500D02*
X27300Y38600D01*
X27100D01*
X27000Y38500D01*
Y38100D01*
X27100Y38000D01*
X27300D01*
X27400Y38100D01*
X27600Y38000D02*
X27800D01*
X27700D01*
Y38400D01*
X27600D01*
X24000Y41000D02*
X23400D01*
Y41300D01*
X23500Y41400D01*
X23700D01*
X23800Y41300D01*
Y41000D01*
Y41200D02*
X24000Y41400D01*
X23900Y41600D02*
X24000Y41700D01*
Y41900D01*
X23900Y42000D01*
X23500D01*
X23400Y41900D01*
Y41700D01*
X23500Y41600D01*
X23900D01*
X23600D02*
X23700Y41700D01*
Y41900D01*
X23600Y42000D01*
Y42300D02*
X23700Y42200D01*
X23900D01*
X24000Y42300D01*
Y42599D01*
X24100D02*
X23600D01*
Y42300D01*
Y42799D02*
X23900D01*
X24000Y42899D01*
Y43199D01*
X23600D01*
X23400Y43399D02*
Y43499D01*
X24000D01*
Y43599D01*
Y43399D01*
Y43999D02*
X23900Y43899D01*
X23800Y43999D01*
Y44299D01*
X23700D02*
X24000D01*
Y43999D01*
X23600D02*
Y44199D01*
X23700Y44299D01*
X23600Y44499D02*
Y44699D01*
Y44599D01*
Y44499D01*
X24100Y42599D02*
X24200Y42500D01*
Y42400D01*
X24000Y44699D02*
X23900Y44599D01*
X23600D01*
X23500D01*
X23700Y44999D02*
X23600Y45099D01*
Y45299D01*
X23700Y45399D01*
X23800D01*
Y44999D01*
X23900D02*
X23700D01*
X23900D02*
X24000Y45099D01*
Y45299D01*
X23900Y45599D02*
X24000Y45698D01*
Y45998D01*
X23600D01*
Y45599D02*
X23900D01*
X23800Y46198D02*
X23700Y46298D01*
X23600Y46398D01*
Y46498D01*
Y46198D02*
X24000D01*
X23800D01*
X21900Y47600D02*
X22000Y47700D01*
Y48000D01*
X21900Y48200D02*
X22000Y48300D01*
Y48599D01*
Y48899D02*
X21900Y48799D01*
X21700D01*
X21600Y48899D01*
Y49099D01*
X21700Y49199D01*
X21800D01*
Y48799D01*
X21600Y48599D02*
Y48300D01*
X21700Y48200D01*
X21900D01*
Y47600D02*
X21700D01*
X21600Y47700D01*
Y48000D01*
Y47300D02*
X21700Y47400D01*
X22000D01*
Y47100D01*
X21900Y47000D01*
X21800Y47100D01*
Y47400D01*
X21600Y47300D02*
Y47100D01*
X22000Y48899D02*
Y49099D01*
Y49399D02*
Y49599D01*
Y49499D01*
X21400D01*
Y49399D01*
X21700Y49899D02*
X21600Y49999D01*
Y50199D01*
X21700Y50299D01*
X21800D01*
Y49899D01*
X21700D02*
X21900D01*
X22000Y49999D01*
Y50199D01*
Y50499D02*
X21800D01*
X21700Y50599D01*
X21600Y50699D01*
Y50799D01*
Y51199D02*
X21700Y51099D01*
X21900D01*
X22000Y51199D01*
Y51399D01*
X21900Y51499D01*
X21700D01*
X21600Y51399D01*
Y51199D01*
Y50499D02*
X22000D01*
X21900Y52298D02*
X22000Y52398D01*
Y52598D01*
X21900Y52698D01*
X21700D01*
Y52498D01*
X21400Y52398D02*
X21500Y52298D01*
X21900D01*
X21400Y52398D02*
Y52598D01*
X21500Y52698D01*
X31100Y51400D02*
X31300D01*
X31400Y51300D01*
Y51000D01*
X31100D01*
X31000Y51100D01*
X31100Y51200D01*
X31400D01*
X31600Y51100D02*
X31700Y51000D01*
X32000D01*
X32200Y51100D02*
X32300Y51000D01*
X32599D01*
X32899D02*
X32799Y51100D01*
Y51300D01*
X32899Y51400D01*
X33099D01*
X33199Y51300D01*
Y51200D01*
X32799D01*
X32899Y51000D02*
X33099D01*
X33399D02*
X33599D01*
X33499D01*
Y51600D01*
X33399D01*
X33899Y51300D02*
X33999Y51400D01*
X34199D01*
X34299Y51300D01*
Y51200D01*
X33899D01*
Y51100D02*
Y51300D01*
Y51100D02*
X33999Y51000D01*
X34199D01*
X34499D02*
Y51200D01*
X34599Y51300D01*
X34699Y51400D01*
X34799D01*
X34499D02*
Y51000D01*
X35199D02*
X35399D01*
X35499Y51100D01*
Y51300D01*
X35399Y51400D01*
X35199D01*
X35099Y51300D01*
Y51100D01*
X35199Y51000D01*
X36298D02*
X36598D01*
X36698Y51100D01*
Y51500D01*
X36598Y51600D01*
X36298D01*
Y51000D01*
X32599Y51400D02*
X32300D01*
X32200Y51300D01*
Y51100D01*
X32000Y51400D02*
X31700D01*
X31600Y51300D01*
Y51100D01*
X38000Y41600D02*
Y41000D01*
X38400D01*
X38600D02*
X38800D01*
X38700D01*
Y41600D01*
X38600Y41500D01*
X44100Y36600D02*
X44000Y36500D01*
Y36100D01*
X44100Y36000D01*
X44300D01*
X44400Y36100D01*
Y36500D02*
X44300Y36600D01*
X44100D01*
X44700Y36400D02*
X44600Y36300D01*
Y36100D01*
X44700Y36000D01*
X44900D01*
X45000Y36100D01*
Y36300D01*
X44900Y36400D01*
X44700D01*
X45200D02*
Y36100D01*
X45300Y36000D01*
X45599D01*
Y36400D01*
X45799D02*
X45999D01*
X45899D01*
X45799D01*
X45899D02*
Y36100D01*
X45999Y36000D01*
X45899Y36400D02*
Y36500D01*
X44400Y31500D02*
X44300Y31600D01*
X44100D01*
X44000Y31500D01*
Y31400D01*
X44100Y31300D01*
X44300D01*
X44400Y31200D01*
Y31100D01*
X44300Y31000D01*
X44100D01*
X44000Y31100D01*
X44600D02*
Y31300D01*
X44700Y31400D01*
X44900D01*
X45000Y31300D01*
Y31200D01*
X44600D01*
Y31100D02*
X44700Y31000D01*
X44900D01*
X45200D02*
Y31200D01*
X45300Y31300D01*
X45400Y31400D01*
X45500D01*
X45200D02*
Y31000D01*
X45999D02*
X46199Y31400D01*
X46499D02*
X46399Y31300D01*
Y31100D01*
X46499Y31000D01*
X46699D01*
X46799Y31100D01*
Y31300D01*
X46699Y31400D01*
X46499D01*
X46999D02*
X47099D01*
X47199Y31300D01*
Y31000D01*
Y31300D01*
X47299Y31400D01*
X47399Y31300D01*
Y31000D01*
X46999D02*
Y31400D01*
X47699D02*
X47599Y31300D01*
Y31100D01*
X47699Y31000D01*
X47899D01*
X47999Y31100D01*
Y31300D01*
X47899Y31400D01*
X47699D01*
X48199D02*
X48399D01*
X48299D01*
X48199D01*
X48299D02*
Y31100D01*
X48399Y31000D01*
X48798D02*
X48698Y31100D01*
Y31300D01*
X48798Y31400D01*
X48998D01*
X49098Y31300D01*
Y31200D01*
X48698D01*
X48798Y31000D02*
X48998D01*
X48299Y31400D02*
Y31500D01*
X49298Y31400D02*
Y31100D01*
X49398Y31000D01*
X49698D01*
Y31400D01*
X49898D02*
Y31000D01*
Y31200D01*
X49998Y31300D01*
X50098Y31400D01*
X50198D01*
X45799D02*
X45999Y31000D01*
X33360Y40840D02*
X33260D01*
Y41440D01*
X33160Y41340D01*
X32960D02*
X32860Y41440D01*
X32560D01*
Y40840D01*
X32860D01*
X32960Y40940D01*
Y41340D01*
X33160Y40840D02*
X33360D01*
X49198Y60500D02*
Y60600D01*
Y60500D02*
X48998Y60300D01*
Y60000D01*
Y60300D02*
X48798Y60500D01*
Y60600D01*
X48499D02*
X48599Y60500D01*
Y60300D01*
X48499Y60200D01*
X48199D01*
Y60000D02*
Y60600D01*
X48499D01*
X48399Y60200D02*
X48599Y60000D01*
X47999D02*
X47799Y60200D01*
X47899D02*
X47599D01*
Y60000D02*
Y60600D01*
X47899D01*
X47999Y60500D01*
Y60300D01*
X47899Y60200D01*
X47399Y60000D02*
X46999D01*
Y60600D01*
X47399D01*
X47199Y60300D02*
X46999D01*
X46799Y60200D02*
X46699Y60300D01*
X46399D01*
X46699D01*
X46799Y60400D01*
Y60500D01*
X46699Y60600D01*
X46399D01*
Y60000D01*
X46699D01*
X46799Y60100D01*
Y60200D01*
X46199Y60300D02*
X46099Y60200D01*
X45799D01*
X45599D02*
Y60100D01*
X45500Y60000D01*
X45300D01*
X45200Y60100D01*
X45000Y60000D02*
Y60300D01*
X44600D01*
Y60400D02*
X44800Y60600D01*
X45000Y60400D01*
Y60000D01*
X44600D02*
Y60400D01*
X45200D02*
X45300Y60300D01*
X45500D01*
X45599Y60200D01*
Y60500D02*
X45500Y60600D01*
X45300D01*
X45200Y60500D01*
Y60400D01*
X45799Y60600D02*
X46099D01*
X46199Y60500D01*
Y60300D01*
X45799Y60000D02*
Y60600D01*
X44300D02*
X44400Y60500D01*
Y60300D01*
X44300Y60200D01*
X44000D01*
Y60000D02*
Y60600D01*
X44300D01*
X44200Y60200D02*
X44400Y60000D01*
D14*
X49000Y55000D02*
D03*
D15*
X22100Y34600D02*
D03*
X33000Y38000D02*
D03*
X29000Y48000D02*
D03*
X25000D02*
D03*
X24803Y55118D02*
D03*
X38386D02*
D03*
X46750Y58600D02*
D03*
X49500Y33500D02*
D03*
D16*
X22100Y33600D02*
D03*
X33000Y39000D02*
D03*
Y40000D02*
D03*
X29700Y43450D02*
D03*
X28700D02*
D03*
X27700D02*
D03*
X26700D02*
D03*
X29000Y49000D02*
D03*
Y50000D02*
D03*
Y51000D02*
D03*
X25000D02*
D03*
Y50000D02*
D03*
Y49000D02*
D03*
X24803Y56118D02*
D03*
X37000Y43000D02*
D03*
X38000D02*
D03*
X46750Y39600D02*
D03*
X47750D02*
D03*
Y40600D02*
D03*
Y41600D02*
D03*
Y42600D02*
D03*
Y43600D02*
D03*
Y44600D02*
D03*
Y45600D02*
D03*
Y46600D02*
D03*
Y47600D02*
D03*
Y48600D02*
D03*
Y49600D02*
D03*
Y50600D02*
D03*
Y51600D02*
D03*
Y52600D02*
D03*
Y53600D02*
D03*
Y54600D02*
D03*
Y55600D02*
D03*
Y56600D02*
D03*
Y57600D02*
D03*
Y58600D02*
D03*
X46750Y57600D02*
D03*
Y56600D02*
D03*
Y55600D02*
D03*
Y54600D02*
D03*
Y53600D02*
D03*
Y52600D02*
D03*
Y51600D02*
D03*
Y50600D02*
D03*
Y49600D02*
D03*
Y48600D02*
D03*
Y47600D02*
D03*
Y46600D02*
D03*
Y45600D02*
D03*
Y44600D02*
D03*
Y43600D02*
D03*
Y42600D02*
D03*
Y41600D02*
D03*
Y40600D02*
D03*
X49500Y35500D02*
D03*
Y34500D02*
D03*
X38386Y56118D02*
D03*
D17*
X39000Y43000D02*
D03*
X25700Y43450D02*
D03*
D18*
X27750Y33750D02*
D03*
Y36750D02*
D03*
X40700Y34550D02*
D03*
X43700D02*
D03*
D19*
X43000Y37000D02*
D03*
M02*
