M48
;Layer_Color=9474304
;FILE_FORMAT=2:4
INCH,LZ
;TYPE=PLATED
T1F00S00C0.0276
T2F00S00C0.0280
T3F00S00C0.0300
T4F00S00C0.0354
%
T01
X02775Y03375
Y03675
X0407Y03455
X0437
T02
X043Y037
T03
X049Y055
T04
X0221Y0336
Y0346
X0257Y04345
X0267
X0277
X0287
X0297
X033Y04
Y039
Y038
X037Y043
X038
X039
X04675Y0426
Y0416
Y0406
Y0396
Y0436
Y0446
Y0456
Y0466
X04775
Y0456
Y0446
Y0436
Y0426
Y0416
Y0406
Y0396
X0495Y0355
Y0345
Y0335
X04775Y0476
Y0486
Y0496
Y0506
Y0516
Y0526
Y0536
Y0546
Y0556
Y0566
Y0576
Y0586
X04675
Y0576
Y0566
Y0556
Y0546
Y0536
Y0526
Y0516
Y0506
Y0496
Y0486
Y0476
X038386Y055118
Y056118
X024803
Y055118
X025Y051
Y05
Y049
Y048
X029
Y049
Y05
Y051
M30
